<svg width="64" height="64" viewBox="0 0 64 64" fill="none" xmlns="http://www.w3.org/2000/svg">
<rect x="0.5" y="0.5" width="63" height="63" rx="15.5" stroke="#B4B4B4"/>
<path d="M26.75 19C27.1642 19 27.5 19.3358 27.5 19.75V23.75C27.5 24.1642 27.1642 24.5 26.75 24.5C26.3358 24.5 26 24.1642 26 23.75V19.75C26 19.3358 26.3358 19 26.75 19Z" fill="#6E6E6E"/>
<path d="M29 21H35V22.5H29V21Z" fill="#6E6E6E"/>
<path d="M39.75 22.5H39.5V21H39.75C42.6495 21 45 23.3505 45 26.25V38.75C45 41.6495 42.6495 44 39.75 44H24.25C21.3505 44 19 41.6495 19 38.75V26.25C19 23.3505 21.3505 21 24.25 21H24.5V22.5H24.25C22.179 22.5 20.5 24.179 20.5 26.25V38.75C20.5 40.8211 22.179 42.5 24.25 42.5H39.75C41.8211 42.5 43.5 40.8211 43.5 38.75V26.25C43.5 24.179 41.8211 22.5 39.75 22.5Z" fill="#6E6E6E"/>
<path d="M24 27.5C23.5858 27.5 23.25 27.8358 23.25 28.25C23.25 28.6642 23.5858 29 24 29H40C40.4142 29 40.75 28.6642 40.75 28.25C40.75 27.8358 40.4142 27.5 40 27.5H24Z" fill="#6E6E6E"/>
<path d="M38 19.75C38 19.3358 37.6642 19 37.25 19C36.8358 19 36.5 19.3358 36.5 19.75V23.75C36.5 24.1642 36.8358 24.5 37.25 24.5C37.6642 24.5 38 24.1642 38 23.75V19.75Z" fill="#6E6E6E"/>
<path d="M26.25 33.5C26.25 34.0523 25.8023 34.5 25.25 34.5C24.6977 34.5 24.25 34.0523 24.25 33.5C24.25 32.9477 24.6977 32.5 25.25 32.5C25.8023 32.5 26.25 32.9477 26.25 33.5Z" fill="#6E6E6E"/>
<path d="M25.25 39C25.8023 39 26.25 38.5523 26.25 38C26.25 37.4477 25.8023 37 25.25 37C24.6977 37 24.25 37.4477 24.25 38C24.25 38.5523 24.6977 39 25.25 39Z" fill="#6E6E6E"/>
<path d="M30.75 33.5C30.75 34.0523 30.3023 34.5 29.75 34.5C29.1977 34.5 28.75 34.0523 28.75 33.5C28.75 32.9477 29.1977 32.5 29.75 32.5C30.3023 32.5 30.75 32.9477 30.75 33.5Z" fill="#6E6E6E"/>
<path d="M29.75 39C30.3023 39 30.75 38.5523 30.75 38C30.75 37.4477 30.3023 37 29.75 37C29.1977 37 28.75 37.4477 28.75 38C28.75 38.5523 29.1977 39 29.75 39Z" fill="#6E6E6E"/>
<path d="M35.25 33.5C35.25 34.0523 34.8023 34.5 34.25 34.5C33.6977 34.5 33.25 34.0523 33.25 33.5C33.25 32.9477 33.6977 32.5 34.25 32.5C34.8023 32.5 35.25 32.9477 35.25 33.5Z" fill="#6E6E6E"/>
<path d="M38.75 34.5C39.3023 34.5 39.75 34.0523 39.75 33.5C39.75 32.9477 39.3023 32.5 38.75 32.5C38.1977 32.5 37.75 32.9477 37.75 33.5C37.75 34.0523 38.1977 34.5 38.75 34.5Z" fill="#6E6E6E"/>
<path d="M35.25 38C35.25 38.5523 34.8023 39 34.25 39C33.6977 39 33.25 38.5523 33.25 38C33.25 37.4477 33.6977 37 34.25 37C34.8023 37 35.25 37.4477 35.25 38Z" fill="#6E6E6E"/>
<path d="M38.75 39C39.3023 39 39.75 38.5523 39.75 38C39.75 37.4477 39.3023 37 38.75 37C38.1977 37 37.75 37.4477 37.75 38C37.75 38.5523 38.1977 39 38.75 39Z" fill="#6E6E6E"/>
</svg>
