<svg width="64" height="64" viewBox="0 0 64 64" fill="none" xmlns="http://www.w3.org/2000/svg">
<rect x="0.5" y="0.5" width="63" height="63" rx="15.5" fill="white" stroke="#A8A8A8"/>
<path fill-rule="evenodd" clip-rule="evenodd" d="M32 24C28.6863 24 26 26.6863 26 30C26 33.3137 28.6863 36 32 36C35.3137 36 38 33.3137 38 30C38 26.6863 35.3137 24 32 24ZM27.5 30C27.5 27.5147 29.5147 25.5 32 25.5C34.4853 25.5 36.5 27.5147 36.5 30C36.5 32.4853 34.4853 34.5 32 34.5C29.5147 34.5 27.5 32.4853 27.5 30Z" fill="#222222"/>
<path fill-rule="evenodd" clip-rule="evenodd" d="M32 18.75C27.7229 18.75 23.8686 21.0678 21.9151 24.9047C19.982 28.7017 20.5755 32.3544 22.2495 35.6886C23.9069 38.9894 26.6593 42.0548 29.1601 44.7661C30.68 46.4137 33.3103 46.3967 34.8198 44.7484C37.2902 42.0508 40.0319 39.0251 41.7012 35.7635C43.388 32.4678 44.0191 28.8511 42.1556 25.0502C40.2332 21.1291 36.336 18.75 32 18.75ZM23.2519 25.5852C24.9453 22.2589 28.2783 20.25 32 20.25C35.7735 20.25 39.1426 22.3122 40.8088 25.7106C42.4028 28.9618 41.9096 32.064 40.3659 35.0802C38.8048 38.1304 36.2099 41.0094 33.7136 43.7354C32.7928 44.7408 31.1826 44.7463 30.2627 43.7491C27.7431 41.0175 25.1382 38.099 23.5901 35.0155C22.0586 31.9652 21.5984 28.833 23.2519 25.5852Z" fill="#222222"/>
</svg>
