<svg width="218" height="44" viewBox="0 0 218 44" fill="none" xmlns="http://www.w3.org/2000/svg">
<path d="M5.84 37.16C10.08 37.16 10.8 33.88 11.28 28.84C12.08 20.84 12.32 10.12 12.32 0.599998H52.64V43H45.6V6.6H19.28C19.2 14.44 18.96 22.84 18.32 29.72C17.52 37.96 15.52 43.56 7.36 43.56C5.84 43.56 3.12 43.24 1.92 42.92L0.8 36.44C2 36.84 4.48 37.16 5.84 37.16ZM114.882 21.88C114.882 35.72 104.722 43.72 89.5219 43.72C74.3219 43.72 64.0819 35.72 64.0819 21.88C64.0819 8.04 74.3219 0.04 89.4419 0.04C104.722 0.04 114.882 8.04 114.882 21.88ZM71.2019 21.88C71.2019 31.88 78.6419 37.08 89.5219 37.08C100.322 37.08 107.762 31.88 107.762 21.88C107.762 11.88 100.322 6.68 89.4419 6.68C78.6419 6.68 71.2019 11.88 71.2019 21.88ZM126.343 43V0.679996H161.223V6.68H133.383V43H126.343ZM217.148 21.88C217.148 35.72 206.988 43.72 191.788 43.72C176.588 43.72 166.348 35.72 166.348 21.88C166.348 8.04 176.588 0.04 191.708 0.04C206.988 0.04 217.148 8.04 217.148 21.88ZM173.468 21.88C173.468 31.88 180.908 37.08 191.788 37.08C202.587 37.08 210.028 31.88 210.028 21.88C210.028 11.88 202.587 6.68 191.708 6.68C180.908 6.68 173.468 11.88 173.468 21.88Z" fill="white"/>
</svg>
