<svg width="64" height="64" viewBox="0 0 64 64" fill="none" xmlns="http://www.w3.org/2000/svg">
<rect x="0.5" y="0.5" width="63" height="63" rx="15.5" stroke="#B4B4B4"/>
<path fill-rule="evenodd" clip-rule="evenodd" d="M32 21.7656C28.8071 21.7656 26.2188 24.354 26.2188 27.5469C26.2188 30.7398 28.8071 33.3281 32 33.3281C35.1929 33.3281 37.7812 30.7398 37.7812 27.5469C37.7812 24.354 35.1929 21.7656 32 21.7656ZM27.7188 27.5469C27.7188 25.1824 29.6356 23.2656 32 23.2656C34.3645 23.2656 36.2812 25.1824 36.2812 27.5469C36.2812 29.9114 34.3645 31.8281 32 31.8281C29.6356 31.8281 27.7188 29.9114 27.7188 27.5469Z" fill="#6E6E6E"/>
<path fill-rule="evenodd" clip-rule="evenodd" d="M17.75 31C17.75 28.7908 19.5409 27 21.75 27C23.9591 27 25.75 28.7908 25.75 31C25.75 33.2092 23.9591 35 21.75 35C19.5409 35 17.75 33.2092 17.75 31ZM21.75 28.5C20.3693 28.5 19.25 29.6193 19.25 31C19.25 32.3807 20.3693 33.5 21.75 33.5C23.1307 33.5 24.25 32.3807 24.25 31C24.25 29.6193 23.1307 28.5 21.75 28.5Z" fill="#6E6E6E"/>
<path d="M42.0349 37.5315C42.7809 37.5816 43.5976 37.7055 44.3005 37.9967C44.815 38.2098 45.2318 38.4982 45.5204 38.8799C45.8024 39.253 45.9999 39.7648 45.9999 40.5V40.75C45.9999 41.1642 46.3356 41.5 46.7499 41.5C47.1641 41.5 47.4999 41.1642 47.4999 40.75V40.5C47.4999 39.4736 47.2161 38.6358 46.717 37.9755C46.2243 37.3238 45.56 36.8949 44.8746 36.6109C43.5261 36.0523 41.9571 36 40.9999 36L40.9531 36C41.0951 36.1484 41.2318 36.3053 41.3622 36.4714C41.6208 36.8006 41.8457 37.1542 42.0349 37.5315Z" fill="#6E6E6E"/>
<path d="M23.0467 36L22.9999 36C22.0427 36 20.4738 36.0523 19.1253 36.6109C18.4398 36.8949 17.7755 37.3238 17.2829 37.9755C16.7837 38.6358 16.5 39.4736 16.5 40.5V40.75C16.5 41.1642 16.8358 41.5 17.25 41.5C17.6642 41.5 18 41.1642 18 40.75V40.5C18 39.7648 18.1975 39.253 18.4795 38.8799C18.768 38.4982 19.1849 38.2098 19.6994 37.9967C20.4023 37.7055 21.219 37.5816 21.965 37.5315C22.1542 37.1542 22.3791 36.8006 22.6377 36.4714C22.7681 36.3053 22.9047 36.1484 23.0467 36Z" fill="#6E6E6E"/>
<path fill-rule="evenodd" clip-rule="evenodd" d="M42.25 27C40.0408 27 38.25 28.7908 38.25 31C38.25 33.2092 40.0408 35 42.25 35C44.4592 35 46.25 33.2092 46.25 31C46.25 28.7908 44.4592 27 42.25 27ZM39.75 31C39.75 29.6193 40.8693 28.5 42.25 28.5C43.6307 28.5 44.75 29.6193 44.75 31C44.75 32.3807 43.6307 33.5 42.25 33.5C40.8693 33.5 39.75 32.3807 39.75 31Z" fill="#6E6E6E"/>
<path d="M24.8003 38.1702C24.3189 38.783 24 39.6042 24 40.7416V41.75C24 42.1642 23.6642 42.5 23.25 42.5C22.8358 42.5 22.5 42.1642 22.5 41.75V40.7416C22.5 39.2992 22.9133 38.1442 23.6207 37.2436C24.3199 36.3535 25.2673 35.7611 26.2628 35.3643C28.2332 34.5787 30.5477 34.5 32 34.5C33.4523 34.5 35.7668 34.5787 37.7372 35.3643C38.7327 35.7611 39.6801 36.3535 40.3793 37.2436C41.0866 38.1442 41.5 39.2992 41.5 40.7416V41.75C41.5 42.1642 41.1642 42.5 40.75 42.5C40.3358 42.5 40 42.1642 40 41.75V40.7416C40 39.6042 39.6811 38.783 39.1997 38.1702C38.7101 37.5469 38.0123 37.0888 37.1817 36.7577C35.5001 36.0873 33.4396 36 32 36C30.5604 36 28.4999 36.0873 26.8183 36.7577C25.9877 37.0888 25.2899 37.5469 24.8003 38.1702Z" fill="#6E6E6E"/>
</svg>
