<svg width="32" height="32" viewBox="0 0 32 32" fill="none" xmlns="http://www.w3.org/2000/svg">
<path d="M10.75 3C11.1642 3 11.5 3.33579 11.5 3.75V7.75C11.5 8.1642 11.1642 8.5 10.75 8.5C10.3358 8.5 10 8.1642 10 7.75V3.75C10 3.33579 10.3358 3 10.75 3Z" fill="#1D1D1D"/>
<path d="M13 5H19V6.5H13V5Z" fill="#1D1D1D"/>
<path d="M23.75 6.5H23.5V5H23.75C26.6495 5 29 7.3505 29 10.25V22.75C29 25.6495 26.6495 28 23.75 28H8.25C5.3505 28 3 25.6495 3 22.75V10.25C3 7.3505 5.3505 5 8.25 5H8.5V6.5H8.25C6.17895 6.5 4.5 8.17895 4.5 10.25V22.75C4.5 24.8211 6.17895 26.5 8.25 26.5H23.75C25.8211 26.5 27.5 24.8211 27.5 22.75V10.25C27.5 8.17895 25.8211 6.5 23.75 6.5Z" fill="#1D1D1D"/>
<path d="M8 11.5C7.5858 11.5 7.25 11.8358 7.25 12.25C7.25 12.6642 7.5858 13 8 13H24C24.4142 13 24.75 12.6642 24.75 12.25C24.75 11.8358 24.4142 11.5 24 11.5H8Z" fill="#1D1D1D"/>
<path d="M22 3.75C22 3.33579 21.6642 3 21.25 3C20.8358 3 20.5 3.33579 20.5 3.75V7.75C20.5 8.1642 20.8358 8.5 21.25 8.5C21.6642 8.5 22 8.1642 22 7.75V3.75Z" fill="#1D1D1D"/>
<path d="M10.25 17.5C10.25 18.0523 9.8023 18.5 9.25 18.5C8.6977 18.5 8.25 18.0523 8.25 17.5C8.25 16.9477 8.6977 16.5 9.25 16.5C9.8023 16.5 10.25 16.9477 10.25 17.5Z" fill="#1D1D1D"/>
<path d="M9.25 23C9.8023 23 10.25 22.5523 10.25 22C10.25 21.4477 9.8023 21 9.25 21C8.6977 21 8.25 21.4477 8.25 22C8.25 22.5523 8.6977 23 9.25 23Z" fill="#1D1D1D"/>
<path d="M14.75 17.5C14.75 18.0523 14.3023 18.5 13.75 18.5C13.1977 18.5 12.75 18.0523 12.75 17.5C12.75 16.9477 13.1977 16.5 13.75 16.5C14.3023 16.5 14.75 16.9477 14.75 17.5Z" fill="#1D1D1D"/>
<path d="M13.75 23C14.3023 23 14.75 22.5523 14.75 22C14.75 21.4477 14.3023 21 13.75 21C13.1977 21 12.75 21.4477 12.75 22C12.75 22.5523 13.1977 23 13.75 23Z" fill="#1D1D1D"/>
<path d="M19.25 17.5C19.25 18.0523 18.8023 18.5 18.25 18.5C17.6977 18.5 17.25 18.0523 17.25 17.5C17.25 16.9477 17.6977 16.5 18.25 16.5C18.8023 16.5 19.25 16.9477 19.25 17.5Z" fill="#1D1D1D"/>
<path d="M22.75 18.5C23.3023 18.5 23.75 18.0523 23.75 17.5C23.75 16.9477 23.3023 16.5 22.75 16.5C22.1977 16.5 21.75 16.9477 21.75 17.5C21.75 18.0523 22.1977 18.5 22.75 18.5Z" fill="#1D1D1D"/>
<path d="M19.25 22C19.25 22.5523 18.8023 23 18.25 23C17.6977 23 17.25 22.5523 17.25 22C17.25 21.4477 17.6977 21 18.25 21C18.8023 21 19.25 21.4477 19.25 22Z" fill="#1D1D1D"/>
<path d="M22.75 23C23.3023 23 23.75 22.5523 23.75 22C23.75 21.4477 23.3023 21 22.75 21C22.1977 21 21.75 21.4477 21.75 22C21.75 22.5523 22.1977 23 22.75 23Z" fill="#1D1D1D"/>
</svg>
