<svg width="16" height="17" viewBox="0 0 16 17" fill="none" xmlns="http://www.w3.org/2000/svg">
<path d="M8.375 2.69599C8.5088 2.74323 8.63555 2.81657 8.7474 2.916L12.2509 6.03018C12.4057 6.16778 12.6427 6.15383 12.7803 5.99903C12.9179 5.84426 12.9039 5.60721 12.7491 5.46963L9.24568 2.35544C8.53528 1.72397 7.46473 1.72397 6.75433 2.35544L3.25088 5.46963C3.09608 5.60721 3.08213 5.84426 3.21973 5.99903C3.35733 6.15383 3.59435 6.16778 3.74913 6.03018L7.2526 2.916C7.36445 2.81657 7.4912 2.74323 7.625 2.69599V11.9999C7.625 12.207 7.7929 12.3749 8 12.3749C8.2071 12.3749 8.375 12.207 8.375 11.9999V2.69599Z" fill="#3B62C4"/>
<path d="M1.75 14.625C1.75 14.4179 1.91789 14.25 2.125 14.25H13.875C14.0821 14.25 14.25 14.4179 14.25 14.625C14.25 14.8321 14.0821 15 13.875 15H2.125C1.91789 15 1.75 14.8321 1.75 14.625Z" fill="#3B62C4"/>
</svg>
