<svg width="16" height="17" viewBox="0 0 16 17" fill="none" xmlns="http://www.w3.org/2000/svg">
<path fill-rule="evenodd" clip-rule="evenodd" d="M0.5 3.625C0.5 3.14175 0.89175 2.75 1.375 2.75H14.625C15.1082 2.75 15.5 3.14175 15.5 3.625V5.625C15.5 7.33675 14.1237 8.72705 12.4173 8.74973C11.7645 10.3966 10.2173 11.5915 8.375 11.7354V14.5H10.9453C11.1524 14.5 11.3203 14.6679 11.3203 14.875C11.3203 15.0821 11.1524 15.25 10.9453 15.25H5.0547C4.84757 15.25 4.6797 15.0821 4.6797 14.875C4.6797 14.6679 4.84757 14.5 5.0547 14.5H7.625V11.7354C5.7827 11.5915 4.23552 10.3966 3.58265 8.74973C1.87628 8.72705 0.5 7.33675 0.5 5.625V3.625ZM12.6479 7.9845C13.831 7.84917 14.75 6.8444 14.75 5.625V3.625C14.75 3.55598 14.694 3.5 14.625 3.5H12.75V7C12.75 7.33755 12.7148 7.66687 12.6479 7.9845ZM1.375 3.5H3.25V7C3.25 7.33755 3.2852 7.66687 3.35215 7.9845C2.16898 7.84917 1.25 6.8444 1.25 5.625V3.625C1.25 3.55598 1.30597 3.5 1.375 3.5ZM4 3.5V7C4 9.20915 5.79085 11 8 11C10.2092 11 12 9.20915 12 7V3.5H4Z" fill="#1D1D1D"/>
</svg>
