<svg width="16" height="17" viewBox="0 0 16 17" fill="none" xmlns="http://www.w3.org/2000/svg">
<path d="M5.375 2.75C4.33948 2.75 3.5 3.58948 3.5 4.625V12.375C3.5 13.4105 4.33948 14.25 5.375 14.25H9.5C9.7071 14.25 9.875 14.4179 9.875 14.625C9.875 14.8321 9.7071 15 9.5 15H5.375C3.92525 15 2.75 13.8247 2.75 12.375V4.625C2.75 3.17525 3.92525 2 5.375 2H9.5C9.7071 2 9.875 2.16789 9.875 2.375C9.875 2.58211 9.7071 2.75 9.5 2.75H5.375Z" fill="#1D1D1D"/>
<path d="M11.5473 5.23482C11.4009 5.38127 11.4009 5.61872 11.5473 5.76517L13.9072 8.12499H6.25C6.0429 8.12499 5.875 8.29289 5.875 8.49999C5.875 8.70709 6.0429 8.87499 6.25 8.87499H13.9072L11.5473 11.2348C11.4009 11.3813 11.4009 11.6187 11.5473 11.7652C11.6938 11.9116 11.9312 11.9116 12.0777 11.7652L14.5473 9.29549C14.9867 8.85614 14.9867 8.14384 14.5473 7.70449L12.0777 5.23482C11.9312 5.08839 11.6938 5.08839 11.5473 5.23482Z" fill="#1D1D1D"/>
</svg>
