<svg width="32" height="32" viewBox="0 0 32 32" fill="none" xmlns="http://www.w3.org/2000/svg">
<path fill-rule="evenodd" clip-rule="evenodd" d="M16.0003 2.5C10.4774 2.5 6.00029 6.97715 6.00029 12.5V18.2619C6.00029 18.4206 5.94999 18.5752 5.85659 18.7036L3.29877 22.2207C2.45753 23.3774 3.28381 25 4.71406 25H27.2865C28.7168 25 29.543 23.3774 28.7018 22.2207L26.1439 18.7036C26.0506 18.5752 26.0003 18.4206 26.0003 18.2619V12.5C26.0003 6.97715 21.5231 2.5 16.0003 2.5ZM7.50029 12.5C7.50029 7.8056 11.3059 4 16.0003 4C20.6947 4 24.5003 7.8056 24.5003 12.5V18.2619C24.5003 18.7376 24.651 19.2011 24.9308 19.5859L27.4887 23.1029C27.6089 23.2682 27.4908 23.5 27.2865 23.5H4.71406C4.50973 23.5 4.3917 23.2682 4.51187 23.1029L7.06974 19.5859C7.34954 19.2011 7.50029 18.7376 7.50029 18.2619V12.5Z" fill="#1D1D1D"/>
<path d="M19.6977 26.8764C19.7669 26.468 19.4919 26.0808 19.0835 26.0116C18.6752 25.9425 18.288 26.2174 18.2188 26.6258C18.1301 27.1497 17.8588 27.6253 17.4529 27.9684C17.0471 28.3114 16.533 28.4997 16.0016 28.5C15.4703 28.5003 14.9559 28.3125 14.5497 27.9699C14.1436 27.6273 13.8717 27.152 13.7824 26.6282C13.7128 26.2199 13.3254 25.9453 12.917 26.0149C12.5087 26.0846 12.2342 26.472 12.3038 26.8803C12.4526 27.7533 12.9057 28.5455 13.5826 29.1165C14.2596 29.6875 15.1168 30.0005 16.0024 30C16.888 29.9996 17.7449 29.6857 18.4213 29.1139C19.0976 28.5422 19.5498 27.7496 19.6977 26.8764Z" fill="#1D1D1D"/>
</svg>
