<svg width="64" height="64" viewBox="0 0 64 64" fill="none" xmlns="http://www.w3.org/2000/svg">
<rect x="0.5" y="0.5" width="63" height="63" rx="15.5" stroke="#B4B4B4"/>
<path fill-rule="evenodd" clip-rule="evenodd" d="M33.0202 20.6435C32.522 19.9396 31.4776 19.9396 30.9795 20.6435L26.5837 26.855L20.7972 22.6832C19.9092 22.043 18.6856 22.7727 18.8266 23.8583L20.5478 37.1044C20.7258 38.4747 21.893 39.5 23.2748 39.5H40.7248C42.1066 39.5 43.2738 38.4747 43.4519 37.1044L45.173 23.8583C45.3141 22.7727 44.0904 22.043 43.2024 22.6832L37.4159 26.855L33.0202 20.6435ZM27.6624 27.9274L31.9998 21.7984L36.3372 27.9274C36.7385 28.4944 37.5251 28.6255 38.0886 28.2192L43.6111 24.2378L41.9644 36.9111C41.8835 37.534 41.3529 38 40.7248 38H23.2748C22.6467 38 22.1162 37.534 22.0353 36.9111L20.3885 24.2378L25.9111 28.2192C26.4746 28.6255 27.2612 28.4944 27.6624 27.9274Z" fill="#6E6E6E"/>
<path d="M21.75 42C21.3358 42 21 42.3358 21 42.75C21 43.1642 21.3358 43.5 21.75 43.5H42.25C42.6642 43.5 43 43.1642 43 42.75C43 42.3358 42.6642 42 42.25 42H21.75Z" fill="#6E6E6E"/>
</svg>
