<svg width="20" height="20" viewBox="0 0 20 20" fill="none" xmlns="http://www.w3.org/2000/svg">
<path fill-rule="evenodd" clip-rule="evenodd" d="M15.7442 3.4055C15.073 2.7343 13.9848 2.7343 13.3136 3.4055L3.62841 13.0906C3.30609 13.413 3.125 13.8501 3.125 14.306V16.0938C3.125 16.5253 3.47478 16.8751 3.90625 16.8751H5.69412C6.14997 16.8751 6.58712 16.694 6.90947 16.3717L16.5946 6.68656C17.2658 6.01535 17.2658 4.9271 16.5946 4.25588L15.7442 3.4055ZM13.9765 4.06844C14.2816 3.76331 14.7762 3.76331 15.0813 4.06844L15.9317 4.91878C16.2368 5.22388 16.2368 5.71856 15.9317 6.02366L14.5879 7.36741L12.6327 5.41219L13.9765 4.06844ZM11.9698 6.0751L4.29131 13.7536C4.14481 13.9001 4.0625 14.0988 4.0625 14.306V15.9376H5.69412C5.90131 15.9376 6.10003 15.8553 6.24653 15.7088L13.925 8.03031L11.9698 6.0751Z" fill="#3B62C4"/>
</svg>
