<svg width="64" height="64" viewBox="0 0 64 64" fill="none" xmlns="http://www.w3.org/2000/svg">
<rect x="0.5" y="0.5" width="63" height="63" rx="15.5" stroke="#B4B4B4"/>
<path fill-rule="evenodd" clip-rule="evenodd" d="M22.8042 22.5768C23.3246 21.898 24.1313 21.5 24.9866 21.5H39.013C39.8684 21.5 40.675 21.898 41.1954 22.5768L45.3065 27.9391C46.1291 29.012 46.0498 30.5236 45.1196 31.5046L33.2697 44.0009C32.5795 44.7287 31.4201 44.7287 30.73 44.0009L18.88 31.5045C17.9498 30.5236 17.8706 29.012 18.6931 27.9391L22.8042 22.5768ZM24.9866 23C24.5978 23 24.2312 23.1809 23.9946 23.4894L19.8835 28.8518C19.847 28.8994 19.8144 28.9489 19.7856 29H25.2998L28.4998 23H24.9866ZM30.1998 23L26.9998 29H36.9998L33.7998 23H30.1998ZM35.4998 23L38.6998 29H44.214C44.1853 28.9489 44.1527 28.8994 44.1161 28.8518L40.005 23.4894C39.7685 23.1809 39.4018 23 39.013 23H35.4998ZM37.1019 30.5H26.8977L31.9998 42.1327L37.1019 30.5ZM25.2598 30.5H19.9946L29.7907 40.8304L25.2598 30.5ZM34.209 40.8304L38.7398 30.5H44.005L34.209 40.8304Z" fill="#6E6E6E"/>
</svg>
