<svg width="16" height="17" viewBox="0 0 16 17" fill="none" xmlns="http://www.w3.org/2000/svg">
<path fill-rule="evenodd" clip-rule="evenodd" d="M8 2C5.92893 2 4.25 3.67893 4.25 5.75C4.25 7.82107 5.92893 9.5 8 9.5C10.0711 9.5 11.75 7.82107 11.75 5.75C11.75 3.67893 10.0711 2 8 2ZM5 5.75C5 4.09315 6.34315 2.75 8 2.75C9.65685 2.75 11 4.09315 11 5.75C11 7.40685 9.65685 8.75 8 8.75C6.34315 8.75 5 7.40685 5 5.75Z" fill="#1D1D1D"/>
<path d="M2.5 14.625C2.5 13.8189 2.72315 13.2267 3.0667 12.7819C3.41398 12.3323 3.90412 12.0079 4.47525 11.7763C5.62817 11.3089 7.03245 11.25 8 11.25C8.96755 11.25 10.3718 11.3089 11.5247 11.7763C12.0959 12.0079 12.586 12.3323 12.9333 12.7819C13.2768 13.2267 13.5 13.8189 13.5 14.625C13.5 14.8321 13.6679 15 13.875 15C14.0821 15 14.25 14.8321 14.25 14.625C14.25 13.6695 13.9815 12.9121 13.5269 12.3235C13.076 11.7397 12.4615 11.3468 11.8066 11.0813C10.5074 10.5545 8.97417 10.5 8 10.5C7.02583 10.5 5.4926 10.5545 4.19345 11.0813C3.53852 11.3468 2.92402 11.7397 2.47312 12.3235C2.01851 12.9121 1.75 13.6695 1.75 14.625C1.75 14.8321 1.91789 15 2.125 15C2.33211 15 2.5 14.8321 2.5 14.625Z" fill="#1D1D1D"/>
</svg>
