<svg width="32" height="32" viewBox="0 0 32 32" fill="none" xmlns="http://www.w3.org/2000/svg">
<path d="M9.5 5.75C9.5 3.95508 10.955 2.5 12.75 2.5H19.25C21.045 2.5 22.5 3.95508 22.5 5.75V6.25C22.5 6.6642 22.1642 7 21.75 7C21.3358 7 21 6.6642 21 6.25V5.75C21 4.7835 20.2165 4 19.25 4H12.75C11.7835 4 11 4.7835 11 5.75V6.25C11 6.6642 10.6642 7 10.25 7C9.8358 7 9.5 6.6642 9.5 6.25V5.75Z" fill="#6E6E6E"/>
<path fill-rule="evenodd" clip-rule="evenodd" d="M3.5 16.1255C2.87761 15.5323 2.5 14.7004 2.5 13.7968V11.2269C2.5 9.4382 3.96164 8 5.75 8H26.25C28.0383 8 29.5 9.4382 29.5 11.2269V13.7968C29.5 14.7004 29.1224 15.5323 28.5 16.1255V23.75C28.5 26.6495 26.1495 29 23.25 29H8.75C5.8505 29 3.5 26.6495 3.5 23.75V16.1255ZM27 16.9387V23.75C27 25.8211 25.3211 27.5 23.25 27.5H8.75C6.67895 27.5 5 25.8211 5 23.75V16.9387L12.8913 19.0849C14.9262 19.6383 17.0738 19.6383 19.1087 19.0849L27 16.9387ZM4 11.2269C4 10.2797 4.77694 9.5 5.75 9.5H26.25C27.223 9.5 28 10.2797 28 11.2269V13.7968C28 14.5697 27.4781 15.2542 26.715 15.4617L18.715 17.6375C16.938 18.1209 15.062 18.1209 13.285 17.6375L5.28505 15.4617C4.5219 15.2542 4 14.5697 4 13.7968V11.2269Z" fill="#6E6E6E"/>
</svg>
