<svg width="32" height="32" viewBox="0 0 32 32" fill="none" xmlns="http://www.w3.org/2000/svg">
<path fill-rule="evenodd" clip-rule="evenodd" d="M4.79361 13.7277C10.7821 11.1187 14.7889 9.39274 16.8027 8.55514C19.6562 7.36824 21.4147 6.65684 22.5612 6.24079C23.6819 5.83409 24.3762 5.64679 25.0329 5.63524C26.8598 5.60304 27.8369 7.21394 27.6779 8.88464C27.3608 12.2168 26.0075 20.1802 25.3264 23.8214C25.011 25.5073 24.2075 27.0007 22.5823 27.1502C20.8946 27.3055 19.6734 26.2222 18.3607 25.3617C16.8165 24.3494 15.3045 23.2891 13.7627 22.2731C12.6244 21.523 11.6578 20.3166 12.1759 18.8863C11.2629 19.4823 10.2691 19.8819 9.2327 19.8595C8.00635 19.833 6.75685 19.4047 5.6008 19.0289C4.63383 18.7146 3.48097 18.4805 2.80461 17.6492C1.96242 16.6141 2.35249 15.2335 3.36294 14.4831C3.76259 14.1863 4.26136 13.9407 4.79361 13.7277ZM5.37125 15.1123C11.3736 12.4971 15.3761 10.7731 17.3787 9.94009C23.0968 7.56179 24.2849 7.14864 25.0593 7.13499C26.0118 7.11824 26.2635 7.91474 26.1847 8.74254C25.8748 11.9983 24.534 19.8991 23.8519 23.5456C23.5633 25.0886 22.995 25.6059 22.4448 25.6565C21.2491 25.7666 20.3412 24.8663 19.1831 24.1072C17.3709 22.9193 16.3471 22.1798 14.5881 21.0206C12.8385 19.8677 13.5709 19.1616 14.5476 18.2201C16.481 16.3562 18.5575 14.6126 20.3724 12.6296C20.5696 12.4142 20.6904 12.2623 20.705 12.2C20.7899 11.8378 20.4713 11.7292 20.1829 11.7946C20.0011 11.8359 17.1062 13.7493 11.498 17.535C10.6762 18.0993 9.93195 18.3742 9.2651 18.3598C8.52995 18.3439 7.1158 17.9441 6.0645 17.6024C4.77505 17.1833 3.75023 16.9617 3.83947 16.2498C3.88595 15.8791 4.39653 15.4999 5.37125 15.1123Z" fill="#6E6E6E"/>
</svg>
