<svg width="32" height="32" viewBox="0 0 32 32" fill="none" xmlns="http://www.w3.org/2000/svg">
<path fill-rule="evenodd" clip-rule="evenodd" d="M16 8C12.6863 8 10 10.6863 10 14C10 17.3137 12.6863 20 16 20C19.3137 20 22 17.3137 22 14C22 10.6863 19.3137 8 16 8ZM11.5 14C11.5 11.5147 13.5147 9.5 16 9.5C18.4853 9.5 20.5 11.5147 20.5 14C20.5 16.4853 18.4853 18.5 16 18.5C13.5147 18.5 11.5 16.4853 11.5 14Z" fill="#6E6E6E"/>
<path fill-rule="evenodd" clip-rule="evenodd" d="M15.9999 2.75C11.7228 2.75 7.8684 5.06775 5.91495 8.9047C3.9819 12.7017 4.5754 16.3544 6.2494 19.6886C7.90675 22.9894 10.6591 26.0548 13.16 28.7661C14.6798 30.4137 17.3102 30.3967 18.8197 28.7484C21.2901 26.0508 24.0317 23.0251 25.7011 19.7635C27.3878 16.4678 28.019 12.8511 26.1555 9.0502C24.233 5.1291 20.3359 2.75 15.9999 2.75ZM7.2517 9.58525C8.94515 6.25895 12.2782 4.25 15.9999 4.25C19.7734 4.25 23.1425 6.31215 24.8087 9.71055C26.4027 12.9618 25.9095 16.064 24.3658 19.0802C22.8046 22.1304 20.2098 25.0094 17.7135 27.7354C16.7927 28.7408 15.1825 28.7463 14.2626 27.7491C11.743 25.0175 9.1381 22.099 7.58995 19.0155C6.0585 15.9652 5.59825 12.833 7.2517 9.58525Z" fill="#6E6E6E"/>
</svg>
