<svg width="36" height="36" viewBox="0 0 36 36" fill="none" xmlns="http://www.w3.org/2000/svg">
<rect x="0.5" y="0.5" width="35" height="35" rx="7.5" fill="white"/>
<rect x="0.5" y="0.5" width="35" height="35" rx="7.5" stroke="#A8A8A8"/>
<path d="M20.9315 11.4375C19.4661 10.7829 17.8238 10.6376 16.2663 11.0247C14.7088 11.4118 13.3256 12.3091 12.3373 13.5736C11.3488 14.838 10.8121 16.3969 10.8125 18.0018C10.8129 19.6067 11.3504 21.1653 12.3394 22.4292C13.3285 23.6932 14.7121 24.5898 16.2697 24.9761C17.8275 25.3625 19.4697 25.2164 20.9347 24.5611C22.3998 23.9058 23.6033 22.779 24.3536 21.3603C24.4747 21.1314 24.7583 21.044 24.9872 21.1651C25.216 21.2861 25.3034 21.5697 25.1824 21.7986C24.3342 23.4023 22.9736 24.6761 21.3175 25.4169C19.6614 26.1576 17.805 26.3228 16.0441 25.8861C14.2832 25.4493 12.7191 24.4358 11.6011 23.007C10.4831 21.5782 9.87545 19.8163 9.875 18.002C9.87455 16.1878 10.4813 14.4256 11.5986 12.9962C12.7159 11.5668 14.2795 10.5525 16.0402 10.1149C17.8008 9.6773 19.6573 9.84155 21.3138 10.5815C22.7841 11.2382 24.0217 12.315 24.875 13.6699V10.5C24.875 10.2411 25.0849 10.0313 25.3438 10.0313C25.6027 10.0313 25.8125 10.2411 25.8125 10.5V14.6406C25.8125 15.1152 25.4277 15.5 24.9531 15.5H20.9688C20.7099 15.5 20.5 15.2901 20.5 15.0312C20.5 14.7724 20.7099 14.5625 20.9688 14.5625H24.3122C23.5588 13.179 22.3712 12.0806 20.9315 11.4375Z" fill="#222222"/>
</svg>
