<svg width="27" height="27" viewBox="0 0 27 27" fill="none" xmlns="http://www.w3.org/2000/svg">
<path fill-rule="evenodd" clip-rule="evenodd" d="M12 0C5.3726 0 0 5.3726 0 12C0 18.6274 5.3726 24 12 24C15.0438 24 17.823 22.8667 19.9384 20.9991L25.4697 26.5303C25.7626 26.8232 26.2374 26.8232 26.5303 26.5303C26.8232 26.2374 26.8232 25.7626 26.5303 25.4697L20.9991 19.9384C22.8667 17.823 24 15.0438 24 12C24 5.3726 18.6274 0 12 0ZM1.5 12C1.5 6.201 6.201 1.5 12 1.5C17.799 1.5 22.5 6.201 22.5 12C22.5 17.799 17.799 22.5 12 22.5C6.201 22.5 1.5 17.799 1.5 12Z" fill="#1D1D1D"/>
</svg>
