<svg width="16" height="17" viewBox="0 0 16 17" fill="none" xmlns="http://www.w3.org/2000/svg">
<path fill-rule="evenodd" clip-rule="evenodd" d="M8 5.625C6.41218 5.625 5.125 6.91218 5.125 8.5C5.125 10.0878 6.41218 11.375 8 11.375C9.58782 11.375 10.875 10.0878 10.875 8.5C10.875 6.91218 9.58782 5.625 8 5.625ZM5.875 8.5C5.875 7.3264 6.8264 6.375 8 6.375C9.1736 6.375 10.125 7.3264 10.125 8.5C10.125 9.6736 9.1736 10.625 8 10.625C6.8264 10.625 5.875 9.6736 5.875 8.5Z" fill="#1D1D1D"/>
<path fill-rule="evenodd" clip-rule="evenodd" d="M7.42444 1.75C6.70674 1.75 6.10977 2.30199 6.05367 3.01747L6.02539 3.37797C6.00699 3.61252 5.84664 3.8389 5.59009 3.9758C5.48694 4.03085 5.38592 4.0893 5.28717 4.15103C5.04074 4.30503 4.76452 4.33085 4.55207 4.22945L4.22499 4.07332C3.57732 3.76417 2.80077 4.00518 2.44193 4.62673L1.86657 5.62327C1.50773 6.24482 1.68727 7.03782 2.27885 7.44417L2.57794 7.6496C2.77177 7.78275 2.88759 8.0344 2.87779 8.32417C2.87582 8.38255 2.87484 8.44117 2.87484 8.5C2.87484 8.55883 2.87582 8.61742 2.87779 8.67577C2.88757 8.96555 2.77177 9.2172 2.57794 9.35032L2.27877 9.55585C1.68719 9.9622 1.50764 10.7552 1.86649 11.3767L2.44185 12.3733C2.80069 12.9948 3.57722 13.2358 4.22492 12.9267L4.55204 12.7705C4.76449 12.6691 5.04072 12.695 5.28714 12.849C5.38592 12.9107 5.48694 12.9692 5.59009 13.0242C5.84664 13.1611 6.00699 13.3875 6.02539 13.622L6.05367 13.9825C6.10977 14.698 6.70674 15.25 7.42444 15.25H8.57517C9.29287 15.25 9.88984 14.698 9.94597 13.9825L9.97422 13.6221C9.99262 13.3875 10.153 13.1611 10.4095 13.0242C10.5127 12.9692 10.6138 12.9107 10.7126 12.849C10.959 12.6949 11.2352 12.6691 11.4477 12.7705L11.7748 12.9267C12.4225 13.2358 13.1991 12.9948 13.5579 12.3733L14.1333 11.3767C14.4921 10.7552 14.3126 9.9622 13.721 9.55585L13.4217 9.35028C13.2279 9.21715 13.1121 8.9655 13.1219 8.67572C13.1238 8.61737 13.1248 8.5588 13.1248 8.5C13.1248 8.44117 13.1238 8.38258 13.1219 8.32422C13.1121 8.03445 13.2279 7.7828 13.4217 7.64967L13.7209 7.44415C14.3125 7.0378 14.492 6.24482 14.1332 5.62327L13.5578 4.62673C13.199 4.00518 12.4224 3.76417 11.7748 4.07332L11.4476 4.22948C11.2352 4.33087 10.959 4.30505 10.7125 4.15105C10.6137 4.0893 10.5127 4.03082 10.4095 3.97578C10.153 3.83888 9.99262 3.6125 9.97422 3.37795L9.94597 3.01747C9.88984 2.30199 9.29287 1.75 8.57517 1.75H7.42444ZM6.80137 3.07612C6.82687 2.7509 7.09822 2.5 7.42444 2.5H8.57517C8.90139 2.5 9.17274 2.7509 9.19824 3.07612L9.22652 3.4366C9.26909 3.9792 9.62522 4.40735 10.0564 4.63745C10.1445 4.68443 10.2307 4.73435 10.315 4.78705C10.73 5.0464 11.2793 5.14087 11.7707 4.90632L12.0978 4.75017C12.3922 4.60965 12.7452 4.7192 12.9083 5.00173L13.4837 5.99827C13.6468 6.2808 13.5652 6.64125 13.2963 6.82595L12.9971 7.03145C12.549 7.33922 12.3558 7.861 12.3723 8.34952C12.374 8.39945 12.3748 8.44963 12.3748 8.5C12.3748 8.55037 12.374 8.60052 12.3723 8.65045C12.3558 9.13895 12.549 9.66073 12.9971 9.9685L13.2964 10.1741C13.5653 10.3588 13.6469 10.7192 13.4838 11.0017L12.9084 11.9983C12.7453 12.2808 12.3923 12.3903 12.0979 12.2498L11.7707 12.0936C11.2793 11.8591 10.73 11.9536 10.3151 12.2129C10.2307 12.2656 10.1445 12.3156 10.0564 12.3625C9.62522 12.5926 9.26909 13.0208 9.22652 13.5634L9.19824 13.9239C9.17274 14.2491 8.90139 14.5 8.57517 14.5H7.42444C7.09822 14.5 6.82687 14.2491 6.80137 13.9239L6.77309 13.5634C6.73052 13.0208 6.37439 12.5927 5.94319 12.3625C5.85519 12.3155 5.76894 12.2656 5.68462 12.2129C5.26967 11.9536 4.72042 11.8591 4.22897 12.0937L3.90184 12.2498C3.60744 12.3903 3.25447 12.2808 3.09137 11.9983L2.51599 11.0017C2.35289 10.7192 2.43451 10.3588 2.70339 10.1741L3.00259 9.96855C3.45067 9.66077 3.64387 9.139 3.62737 8.65047C3.62569 8.60055 3.62484 8.55037 3.62484 8.5C3.62484 8.4496 3.62569 8.39943 3.62737 8.34947C3.64387 7.86095 3.45067 7.33918 3.00259 7.0314L2.70349 6.82595C2.43459 6.64125 2.35298 6.2808 2.51609 5.99827L3.09144 5.00173C3.25457 4.7192 3.60754 4.60965 3.90194 4.75017L4.22902 4.9063C4.72044 5.14085 5.26969 5.04638 5.68464 4.78702C5.76897 4.73435 5.85519 4.68445 5.94322 4.63748C6.37439 4.40735 6.73052 3.97922 6.77309 3.43663L6.80137 3.07612Z" fill="#1D1D1D"/>
</svg>
