<svg width="16" height="17" viewBox="0 0 16 17" fill="none" xmlns="http://www.w3.org/2000/svg">
<path fill-rule="evenodd" clip-rule="evenodd" d="M8 3.38281C6.40355 3.38281 5.10938 4.67701 5.10938 6.27346C5.10938 7.86989 6.40355 9.16406 8 9.16406C9.59645 9.16406 10.8906 7.86989 10.8906 6.27346C10.8906 4.67701 9.59645 3.38281 8 3.38281ZM5.85938 6.27346C5.85938 5.09121 6.81778 4.13281 8 4.13281C9.18223 4.13281 10.1406 5.09121 10.1406 6.27346C10.1406 7.45569 9.18223 8.41406 8 8.41406C6.81778 8.41406 5.85938 7.45569 5.85938 6.27346Z" fill="#1D1D1D"/>
<path fill-rule="evenodd" clip-rule="evenodd" d="M0.875 8C0.875 6.89542 1.77043 6 2.875 6C3.97957 6 4.875 6.89542 4.875 8C4.875 9.10458 3.97957 10 2.875 10C1.77043 10 0.875 9.10458 0.875 8ZM2.875 6.75C2.18464 6.75 1.625 7.30965 1.625 8C1.625 8.69035 2.18464 9.25 2.875 9.25C3.56535 9.25 4.125 8.69035 4.125 8C4.125 7.30965 3.56535 6.75 2.875 6.75Z" fill="#1D1D1D"/>
<path d="M13.0174 11.2658C13.3904 11.2908 13.7988 11.3528 14.1502 11.4983C14.4075 11.6049 14.6159 11.7491 14.7602 11.94C14.9012 12.1265 14.9999 12.3824 14.9999 12.75V12.875C14.9999 13.0821 15.1678 13.25 15.3749 13.25C15.582 13.25 15.7499 13.0821 15.7499 12.875V12.75C15.7499 12.2368 15.6081 11.8179 15.3585 11.4877C15.1122 11.1619 14.78 10.9474 14.4373 10.8055C13.763 10.5261 12.9786 10.5 12.4999 10.5L12.4766 10.5C12.5475 10.5742 12.6159 10.6527 12.6811 10.7357C12.8104 10.9003 12.9228 11.0771 13.0174 11.2658Z" fill="#1D1D1D"/>
<path d="M3.52335 10.5L3.49997 10.5C3.02137 10.5 2.23689 10.5261 1.56264 10.8055C1.21991 10.9474 0.887755 11.1619 0.641445 11.4877C0.39186 11.8179 0.25 12.2368 0.25 12.75V12.875C0.25 13.0821 0.417893 13.25 0.625 13.25C0.832107 13.25 1 13.0821 1 12.875V12.75C1 12.3824 1.09874 12.1265 1.23974 11.94C1.38402 11.7491 1.59244 11.6049 1.84968 11.4983C2.20113 11.3528 2.60948 11.2908 2.98248 11.2658C3.07708 11.0771 3.18953 10.9003 3.31883 10.7357C3.38405 10.6527 3.45237 10.5742 3.52335 10.5Z" fill="#1D1D1D"/>
<path fill-rule="evenodd" clip-rule="evenodd" d="M13.125 6C12.0204 6 11.125 6.89542 11.125 8C11.125 9.10458 12.0204 10 13.125 10C14.2296 10 15.125 9.10458 15.125 8C15.125 6.89542 14.2296 6 13.125 6ZM11.875 8C11.875 7.30965 12.4346 6.75 13.125 6.75C13.8154 6.75 14.375 7.30965 14.375 8C14.375 8.69035 13.8154 9.25 13.125 9.25C12.4346 9.25 11.875 8.69035 11.875 8Z" fill="#1D1D1D"/>
<path d="M4.40015 11.5851C4.15945 11.8915 4 12.3021 4 12.8708V13.375C4 13.5821 3.8321 13.75 3.625 13.75C3.4179 13.75 3.25 13.5821 3.25 13.375V12.8708C3.25 12.1496 3.45667 11.5721 3.81035 11.1218C4.15995 10.6767 4.63365 10.3806 5.1314 10.1821C6.1166 9.78937 7.27385 9.75 8 9.75C8.72615 9.75 9.8834 9.78937 10.8686 10.1821C11.3664 10.3806 11.84 10.6767 12.1896 11.1218C12.5433 11.5721 12.75 12.1496 12.75 12.8708V13.375C12.75 13.5821 12.5821 13.75 12.375 13.75C12.1679 13.75 12 13.5821 12 13.375V12.8708C12 12.3021 11.8405 11.8915 11.5998 11.5851C11.3551 11.2735 11.0061 11.0444 10.5909 10.8788C9.75007 10.5436 8.71982 10.5 8 10.5C7.28018 10.5 6.24993 10.5436 5.40913 10.8788C4.99385 11.0444 4.64495 11.2735 4.40015 11.5851Z" fill="#1D1D1D"/>
</svg>
