<svg width="10" height="11" viewBox="0 0 10 11" fill="none" xmlns="http://www.w3.org/2000/svg">
<path d="M0.215306 0.715306C0.361756 0.568856 0.599181 0.568856 0.745631 0.715306L4.99978 4.96946L9.25396 0.715306C9.40041 0.568856 9.63783 0.568856 9.78428 0.715306C9.93073 0.861756 9.93073 1.09918 9.78428 1.24563L5.53013 5.49978L9.78428 9.75396C9.93073 9.90041 9.93073 10.1378 9.78428 10.2843C9.63783 10.4307 9.40041 10.4307 9.25396 10.2843L4.99978 6.03013L0.745631 10.2843C0.599181 10.4307 0.361756 10.4307 0.215306 10.2843C0.0688563 10.1378 0.0688563 9.90041 0.215306 9.75396L4.46946 5.49978L0.215306 1.24563C0.0688563 1.09918 0.0688563 0.861756 0.215306 0.715306Z" fill="white"/>
</svg>
